<?xml version="1.0" encoding="UTF-8"?>
<!DOCTYPE svg PUBLIC "-//W3C//DTD SVG 1.1//EN" "http://www.w3.org/Graphics/SVG/1.1/DTD/svg11.dtd">
<!-- Creator: CorelDRAW -->
<svg xmlns="http://www.w3.org/2000/svg" xml:space="preserve" width="173.675mm" height="43.6238mm" version="1.1" style="shape-rendering:geometricPrecision; text-rendering:geometricPrecision; image-rendering:optimizeQuality; fill-rule:evenodd; clip-rule:evenodd"
viewBox="0 0 17331 4353.2"
 xmlns:xlink="http://www.w3.org/1999/xlink"
 xmlns:xodm="http://www.corel.com/coreldraw/odm/2003">
 <defs>
  <style type="text/css">
   <![CDATA[
    .fil0 {fill:#002E55}
    .fil1 {fill:#4F6D87}
    .fil2 {fill:#002E55;fill-rule:nonzero}
   ]]>
  </style>
 </defs>
 <g id="Capa_x0020_1">
  <metadata id="CorelCorpID_0Corel-Layer"/>
  <g id="_2214843683168">
   <polygon class="fil0" points="-0,0 4355.39,2.22 3664.28,652.53 658.73,658.7 658.73,3708.37 3220.11,3708.37 3856.57,4344.82 -0,4345.51 "/>
   <polygon class="fil1" points="3665.29,3162.46 2480.84,1978.02 1970.71,2461.89 3862.01,4353.2 4355.39,4353.2 4355.39,2.22 3664.28,652.53 "/>
   <path class="fil2" d="M6844.23 1907.83l-125.06 -131.64c-68.6,48.39 -141.44,72.61 -218.46,72.61l-166.26 0c-80.19,0 -150.67,-18.33 -211.34,-54.87 -60.67,-36.55 -107.91,-88.31 -141.69,-155.27 -33.78,-66.97 -50.67,-144.28 -50.67,-232.03l0 -324.07c0,-87.76 16.89,-165.12 50.67,-232.04 33.78,-66.97 81.52,-118.71 143.28,-155.27 61.76,-36.59 132.74,-54.87 212.92,-54.87l167.86 0c80.23,0 150.94,18.28 212.11,54.87 61.27,36.56 108.71,88.3 142.49,155.27 33.78,66.92 50.72,144.28 50.72,232.04l0 313.91c0,91.14 -24.32,174.97 -72.86,251.5l123.47 129.92 -117.18 129.96zm-343.52 -232.89c32.69,0 64.93,-9 96.58,-26.98l-152 -160.36 115.6 -129.98 145.65 151.9c12.63,-33.73 19.02,-71.41 19.02,-113.06l0 -307.17c0,-82.12 -20.36,-148.5 -60.97,-199.15 -40.65,-50.61 -94.24,-75.94 -160.7,-75.94l-166.27 0c-65.42,0 -118.77,25.33 -159.87,75.94 -41.16,50.65 -61.76,117.03 -61.76,199.15l0 310.54c0,82.18 20.06,148.54 60.12,199.15 40.17,50.67 93.46,75.97 159.92,75.97l164.68 0zm968.96 173.85c-73.84,0 -139.33,-17.19 -196.33,-51.51 -56.96,-34.32 -101.04,-82.66 -132.19,-145.11 -31.15,-62.45 -46.71,-134.77 -46.71,-216.88l0 -781.4 185.29 0 0 778.03c0,73.12 17.38,131.9 52.2,176.38 34.87,44.43 80.73,66.65 137.74,66.65l169.43 0c58.05,0 104.75,-22.22 140.11,-66.65 35.37,-44.48 53.05,-103.26 53.05,-176.38l0 -778.03 185.23 0 0 781.4c0,82.12 -15.85,154.43 -47.5,216.88 -31.69,62.46 -76.02,110.8 -132.98,145.11 -57.01,34.32 -122.98,51.51 -197.91,51.51l-169.43 0zm772.63 -1194.91l185.29 0 0 1181.39 -185.29 0 0 -1181.39zm552.63 1181.39c-42.25,0 -75.53,-12.92 -99.8,-38.84 -24.27,-25.85 -36.4,-60.17 -36.4,-102.91l0 -1039.64 185.24 0 0 1009.22 601.66 0 0 172.17 -650.7 0zm780.5 -1181.39l167.86 0 373.64 729.09 364.17 -729.09 167.81 0 0 1181.39 -182.07 0 0 -815.18 -261.26 516.47c-14.76,27 -29.03,46.41 -42.75,58.21 -13.71,11.84 -29.02,17.72 -45.9,17.72l-52.26 0 -308.71 -592.4 0 815.18 -180.53 0 0 -1181.39zm1424.97 1181.39c-41.16,0 -74.14,-13.22 -98.96,-39.67 -24.81,-26.46 -37.19,-61.03 -37.19,-103.77l0 -1037.95 812.2 0 0 170.43 -626.98 0 0 320.69 579.48 0 0 172.16 -579.48 0 0 347.63 626.98 0 0 170.48 -676.04 0zm1160.52 13.52c-109.75,0 -196.33,-33.79 -259.67,-101.28 -63.3,-67.52 -95,-159.79 -95,-276.77l182.12 0c0,62.99 15.56,112.76 46.66,149.33 31.14,36.59 74.18,54.86 129.07,54.86l175.72 0c51.76,0 93.41,-12.07 125.11,-36.29 31.65,-24.18 47.5,-55.97 47.5,-95.34l0 -74.24c0,-30.41 -11.1,-55.72 -33.23,-75.97 -22.19,-20.27 -53.84,-34.33 -95.05,-42.2l-288.15 -52.3c-89.69,-15.75 -158.59,-47.25 -206.62,-94.5 -48,-47.31 -72.02,-107.48 -72.02,-180.63l0 -92.81c0,-57.35 14.51,-108.02 43.54,-151.9 29.07,-43.89 69.93,-77.91 122.73,-102.07 52.8,-24.24 113.96,-36.31 183.64,-36.31l178.9 0c65.47,0 123.27,14.37 173.39,43.04 50.12,28.67 88.95,69.48 116.33,122.38 27.49,52.85 41.16,113.62 41.16,182.26l-180.48 0c0,-51.74 -14.02,-93.65 -41.95,-125.74 -27.98,-32.04 -64.13,-48.1 -108.46,-48.1l-178.9 0c-49.63,0 -89.49,11.56 -119.56,34.63 -30.07,23.04 -45.06,54.29 -45.06,93.65l0 60.77c0,31.5 10.5,57.65 31.59,78.45 21.15,20.81 51.76,34.63 91.88,41.35l288.15 54c90.74,16.89 160.67,48.14 209.8,93.7 49.09,45.57 73.6,103.76 73.6,174.63l0 109.7c0,57.41 -14.76,108.32 -44.33,152.75 -29.57,44.48 -71.23,79.04 -125.12,103.81 -53.84,24.78 -115.6,37.15 -185.23,37.15l-182.07 0z"/>
   <path class="fil2" d="M6355.85 3731.63c-83.26,0 -156.36,-18.32 -219.37,-54.87 -63.05,-36.56 -111.97,-88.3 -146.85,-155.27 -34.87,-66.96 -52.3,-144.27 -52.3,-232.04l0 -324.07c0,-87.75 17.68,-165.12 53.15,-232.02 35.47,-66.97 85.24,-118.73 149.37,-155.27 64.13,-36.61 138.38,-54.88 222.78,-54.88l178.89 0c79.87,0 150.75,17.18 212.61,51.51 61.91,34.28 109.71,82.67 143.48,145.11 33.73,62.45 50.62,134.73 50.62,216.88l-194.1 0c0,-72.01 -19.66,-129.96 -59.04,-173.83 -39.38,-43.9 -90.58,-65.82 -153.58,-65.82l-178.89 0c-68.65,0 -123.78,25.3 -165.43,75.92 -41.6,50.67 -62.4,117.02 -62.4,199.15l0 310.55c0,83.24 20.21,149.91 60.72,199.99 40.51,50.06 93.95,75.14 160.32,75.14l182.31 0c65.23,0 118.12,-24.78 158.64,-74.29 40.5,-49.48 60.76,-113.62 60.76,-192.37l194.05 0c0,87.75 -17.13,164.82 -51.45,231.19 -34.33,66.43 -82.72,117.87 -145.17,154.43 -62.4,36.55 -134.72,54.87 -216.82,54.87l-182.31 0zm1159.48 0c-85.49,0 -160.87,-18.32 -226.14,-54.87 -65.28,-36.56 -115.9,-88.3 -151.9,-155.27 -36.01,-66.96 -53.99,-144.27 -53.99,-232.04l0 -324.07c0,-87.75 17.97,-165.12 53.99,-232.02 36,-66.97 86.62,-118.73 151.9,-155.27 65.27,-36.61 140.65,-54.88 226.14,-54.88l178.89 0c85.54,0 161.16,18.27 226.99,54.88 65.82,36.54 116.73,88.3 152.74,155.27 36,66.9 54.04,144.27 54.04,232.02l0 324.07c0,87.77 -18.03,165.08 -54.04,232.04 -36,66.97 -86.92,118.71 -152.74,155.27 -65.83,36.55 -141.45,54.87 -226.99,54.87l-178.89 0zm178.89 -173.83c69.78,0 126.59,-25.33 170.48,-75.98 43.88,-50.62 65.82,-116.99 65.82,-199.15l0 -310.55c0,-82.13 -21.69,-148.48 -64.98,-199.15 -43.34,-50.62 -100.45,-75.92 -171.32,-75.92l-177.21 0c-70.88,0 -127.98,25.3 -171.32,75.92 -43.29,50.67 -64.93,117.02 -64.93,199.15l0 310.55c0,82.16 21.64,148.53 64.93,199.15 43.34,50.65 100.44,75.98 171.32,75.98l177.21 0zm629.5 -1021.08l609.28 0c96.74,0 174.94,26.45 234.57,79.29 59.63,52.91 89.45,122.68 89.45,209.3l0 119.82c0,58.5 -17.73,110.01 -53.15,154.43 -35.46,44.43 -84.69,77.36 -147.69,98.75l0 3.37c36,21.34 64.98,48.64 86.92,81.82 21.94,33.23 40.81,76.28 56.56,129.11l94.5 305.5 -204.2 0 -91.13 -291.97c-14.67,-50.6 -37.15,-89.44 -67.51,-116.42 -30.42,-27.04 -65.82,-40.51 -106.34,-40.51l-303.81 0 0 448.91 -197.46 0 0 -1181.39zm565.41 561.99c51.76,0 93.06,-14.06 124.02,-42.19 30.95,-28.14 46.4,-64.68 46.4,-109.71l0 -116.44c0,-36 -11.79,-65.27 -35.41,-87.75 -23.63,-22.49 -55.12,-33.74 -94.55,-33.74l-408.41 0 0 389.84 367.94 0zm563.68 -561.99l609.28 0c96.73,0 174.93,26.45 234.57,79.29 59.63,52.91 89.45,122.68 89.45,209.3l0 119.82c0,58.5 -17.73,110.01 -53.15,154.43 -35.47,44.43 -84.69,77.36 -147.69,98.75l0 3.37c36,21.34 64.98,48.64 86.92,81.82 21.94,33.23 40.81,76.28 56.56,129.11l94.5 305.5 -204.2 0 -91.14 -291.97c-14.66,-50.6 -37.14,-89.44 -67.51,-116.42 -30.41,-27.04 -65.82,-40.51 -106.34,-40.51l-303.8 0 0 448.91 -197.46 0 0 -1181.39zm565.41 561.99c51.75,0 93.06,-14.06 124.02,-42.19 30.95,-28.14 46.4,-64.68 46.4,-109.71l0 -116.44c0,-36 -11.79,-65.27 -35.41,-87.75 -23.63,-22.49 -55.13,-33.74 -94.55,-33.74l-408.41 0 0 389.84 367.94 0zm956.92 632.92c-78.74,0 -148.53,-17.18 -209.3,-51.5 -60.72,-34.34 -107.72,-82.68 -140.91,-145.12 -33.18,-62.46 -49.78,-134.77 -49.78,-216.88l0 -781.4 197.47 0 0 778.04c0,73.11 18.57,131.88 55.66,176.36 37.15,44.43 86.09,66.68 146.85,66.68l180.57 0c61.86,0 111.68,-22.25 149.37,-66.68 37.69,-44.48 56.51,-103.25 56.51,-176.36l0 -778.04 197.47 0 0 781.4c0,82.12 -16.89,154.42 -50.62,216.88 -33.77,62.45 -81.02,110.79 -141.74,145.12 -60.77,34.32 -131.1,51.5 -210.99,51.5l-180.57 0zm1194.9 0c-84.39,0 -158.39,-18.32 -221.93,-54.87 -63.6,-36.56 -112.82,-88.3 -147.69,-155.27 -34.87,-66.96 -52.3,-144.27 -52.3,-232.04l0 -324.07c0,-87.75 17.67,-165.12 53.14,-232.02 35.47,-66.97 85.54,-118.73 150.22,-155.27 64.68,-36.61 139.22,-54.88 223.62,-54.88l185.63 0c81.03,0 152.45,16.59 214.36,49.78 61.86,33.24 109.7,79.89 143.43,140.12 33.78,60.17 50.67,129.65 50.67,208.4l-194.1 0c0,-67.5 -19.72,-121.79 -59.09,-162.84 -39.38,-41.07 -91.14,-61.61 -155.27,-61.61l-185.63 0c-68.65,0 -124.07,25 -166.27,75.07 -42.2,50.08 -63.25,116.73 -63.25,200l0 310.55c0,83.24 20.51,149.91 61.56,199.99 41.06,50.06 95.39,75.14 162.9,75.14l192.37 0c65.27,0 118.71,-23.09 160.36,-69.2 41.61,-46.16 62.41,-105.2 62.41,-177.2l0 -57.41 -327.38 0 0 -172.16 521.48 0 0 229.57c0,82.12 -17.43,154.97 -52.3,218.55 -34.92,63.55 -83.85,113.07 -146.85,148.5 -63,35.47 -135.55,53.19 -217.72,53.19l-192.37 0zm1439.58 -305.5l-469.18 0 -109.71 291.97 -204.2 0 459.02 -1181.39 89.45 0c60.77,0 102.96,29.82 126.59,89.44l421.93 1091.95 -205.9 0 -108.01 -291.97zm-413.51 -165.42l357.84 0 -177.21 -479.28 -1.74 0 -178.89 479.28zm994.07 457.4c-43.89,0 -79.05,-12.93 -105.5,-38.83 -26.44,-25.85 -39.68,-60.17 -39.68,-102.91l0 -1039.65 538.37 0c87.76,0 165.12,16.59 232.08,49.78 66.97,33.19 118.72,80.19 155.27,140.91 36.55,60.77 54.82,131.09 54.82,210.98l0 344.28c0,142.89 -36.84,251.19 -110.54,324.9 -73.7,73.69 -181.97,110.54 -324.85,110.54l-399.99 0zm394.88 -173.83c79.89,0 140.36,-22.79 181.48,-68.37 41.05,-45.56 61.56,-112.22 61.56,-199.99l0 -330.79c0,-69.74 -23.03,-126.29 -69.19,-169.58 -46.1,-43.33 -106.29,-64.98 -180.58,-64.98l-335.84 0 0 833.71 342.58 0zm1027.84 187.35c-85.48,0 -160.86,-18.32 -226.13,-54.87 -65.27,-36.56 -115.9,-88.3 -151.9,-155.27 -36,-66.96 -53.99,-144.27 -53.99,-232.04l0 -324.07c0,-87.75 17.98,-165.12 53.99,-232.02 36,-66.97 86.63,-118.73 151.9,-155.27 65.27,-36.61 140.65,-54.88 226.13,-54.88l178.9 0c85.53,0 161.16,18.27 226.98,54.88 65.82,36.54 116.73,88.3 152.75,155.27 36,66.9 54.04,144.27 54.04,232.02l0 324.07c0,87.77 -18.03,165.08 -54.04,232.04 -36.01,66.97 -86.93,118.71 -152.75,155.27 -65.82,36.55 -141.45,54.87 -226.98,54.87l-178.9 0zm178.9 -173.83c69.78,0 126.59,-25.33 170.47,-75.98 43.89,-50.62 65.82,-116.99 65.82,-199.15l0 -310.55c0,-82.13 -21.69,-148.48 -64.98,-199.15 -43.33,-50.62 -100.44,-75.92 -171.31,-75.92l-177.22 0c-70.87,0 -127.98,25.3 -171.32,75.92 -43.27,50.67 -64.91,117.02 -64.91,199.15l0 310.55c0,82.16 21.64,148.53 64.91,199.15 43.34,50.65 100.45,75.98 171.32,75.98l177.22 0zm967.03 173.83c-116.98,0 -209.26,-33.77 -276.77,-101.29 -67.51,-67.51 -101.29,-159.78 -101.29,-276.76l194.1 0c0,63 16.59,112.78 49.78,149.32 33.19,36.61 79.05,54.89 137.59,54.89l187.31 0c55.12,0 99.55,-12.08 133.33,-36.31 33.73,-24.16 50.62,-55.96 50.62,-95.35l0 -74.24c0,-30.41 -11.8,-55.7 -35.42,-75.97 -23.63,-20.25 -57.4,-34.33 -101.29,-42.19l-307.17 -52.31c-95.64,-15.75 -169.03,-47.25 -220.25,-94.5 -51.16,-47.29 -76.77,-107.46 -76.77,-180.63l0 -92.81c0,-57.35 15.45,-108.02 46.4,-151.9 30.95,-43.88 74.54,-77.91 130.8,-102.06 56.26,-24.22 121.49,-36.31 195.79,-36.31l190.68 0c69.78,0 131.4,14.36 184.84,43.05 53.44,28.67 94.8,69.48 124.02,122.37 29.27,52.85 43.88,113.62 43.88,182.28l-192.41 0c0,-51.76 -14.91,-93.66 -44.73,-125.75 -29.82,-32.04 -68.35,-48.09 -115.6,-48.09l-190.68 0c-52.9,0 -95.39,11.53 -127.44,34.62 -32.09,23.02 -48.09,54.28 -48.09,93.64l0 60.77c0,31.5 11.25,57.67 33.73,78.45 22.53,20.81 55.12,34.62 97.91,41.36l307.17 53.98c96.73,16.89 171.27,48.15 223.62,93.71 52.3,45.56 78.45,103.76 78.45,174.64l0 109.71c0,57.4 -15.75,108.3 -47.25,152.74 -31.5,44.48 -75.93,79.05 -133.33,103.81 -57.4,24.76 -123.22,37.14 -197.46,37.14l-194.1 0z"/>
  </g>
 </g>
</svg>
